<?xml version="1.0" encoding="UTF-8" standalone="no"?>
<!-- Generator: Adobe Illustrator 23.0.1, SVG Export Plug-In . SVG Version: 6.00 Build 0)  -->

<svg
   xmlns:dc="http://purl.org/dc/elements/1.1/"
   xmlns:cc="http://creativecommons.org/ns#"
   xmlns:rdf="http://www.w3.org/1999/02/22-rdf-syntax-ns#"
   xmlns:svg="http://www.w3.org/2000/svg"
   xmlns="http://www.w3.org/2000/svg"
   xmlns:sodipodi="http://sodipodi.sourceforge.net/DTD/sodipodi-0.dtd"
   xmlns:inkscape="http://www.inkscape.org/namespaces/inkscape"
   version="1.0"
   id="Layer_1"
   x="0px"
   y="0px"
   viewBox="0 0 26.15 26.15"
   enable-background="new 0 0 64 62"
   xml:space="preserve"
   sodipodi:docname="search_icon.svg"
   width="26.15"
   height="26.15"
   inkscape:version="0.92.3 (2405546, 2018-03-11)"><metadata
   id="metadata19"><rdf:RDF><cc:Work
       rdf:about=""><dc:format>image/svg+xml</dc:format><dc:type
         rdf:resource="http://purl.org/dc/dcmitype/StillImage" /><dc:title></dc:title></cc:Work></rdf:RDF></metadata><defs
   id="defs17" /><sodipodi:namedview
   pagecolor="#ffffff"
   bordercolor="#666666"
   borderopacity="1"
   objecttolerance="10"
   gridtolerance="10"
   guidetolerance="10"
   inkscape:pageopacity="0"
   inkscape:pageshadow="2"
   inkscape:window-width="1533"
   inkscape:window-height="845"
   id="namedview15"
   showgrid="false"
   fit-margin-top="0"
   fit-margin-left="0"
   fit-margin-right="0"
   fit-margin-bottom="0"
   inkscape:zoom="3.8064516"
   inkscape:cx="12.6"
   inkscape:cy="14.65"
   inkscape:window-x="67"
   inkscape:window-y="207"
   inkscape:window-maximized="1"
   inkscape:current-layer="Layer_1" />

<g
   id="g12"
   transform="translate(-19.4,-19.5)">
	<path
   d="m 44.8,41.4 -6,-6 c -0.9,1.4 -2.1,2.6 -3.5,3.5 l 6,6 c 1,1 2.5,1 3.5,0 1,-1 1,-2.6 0,-3.5 z"
   id="path6"
   inkscape:connector-curvature="0"
   style="fill:#ffffff" />
	<path
   d="m 39,29.3 c 0,-5.4 -4.4,-9.8 -9.8,-9.8 -5.4,0 -9.8,4.4 -9.8,9.8 0,5.4 4.4,9.8 9.8,9.8 C 34.6,39 39,34.7 39,29.3 Z m -9.8,7.3 c -4,0 -7.3,-3.3 -7.3,-7.3 0,-4 3.3,-7.3 7.3,-7.3 4,0 7.3,3.3 7.3,7.3 0.1,4 -3.2,7.3 -7.3,7.3 z"
   id="path8"
   inkscape:connector-curvature="0"
   style="fill:#ffffff" />
	<path
   d="m 23.5,29.3 h 1.6 c 0,-2.2 1.8,-4.1 4.1,-4.1 v -1.6 c -3.1,0 -5.7,2.5 -5.7,5.7 z"
   id="path10"
   inkscape:connector-curvature="0"
   style="fill:#ffffff" />
</g>
</svg>