<?xml version="1.0" encoding="utf-8"?>
<!-- Generator: Adobe Illustrator 23.0.1, SVG Export Plug-In . SVG Version: 6.00 Build 0)  -->
<svg version="1.0" id="Layer_1" xmlns="http://www.w3.org/2000/svg" xmlns:xlink="http://www.w3.org/1999/xlink" x="0px" y="0px"
	 viewBox="0 0 120 48" enable-background="new 0 0 120 48" xml:space="preserve">
<g>
	<path fill="#FF2932" d="M116.7,0.3L0,10.5l3.3,37.2L120,37.5L116.7,0.3z M7.9,42.1l-2.4-27l106.5-9.3l2.4,27L7.9,42.1z"/>
	<path fill="#FF2932" d="M17.1,21.2l-3.9,13.2l4.6-0.4l0.5-1.9l4.1-0.4l0.8,1.8l4.7-0.4l-6.1-12.4L17.1,21.2z M18.9,28.7l0.8-3.3
		l1.3,3.1L18.9,28.7z"/>
	<polygon fill="#FF2932" points="35.7,19.6 25.1,20.5 25.4,24.1 28.5,23.9 29.3,33 33.6,32.7 32.8,23.5 36,23.2 	"/>
	<path fill="#FF2932" d="M49.4,18.4l-2.8,9.4v0l-4.7,0.4l-0.8-9.1l-4.3,0.4l1.1,12.8l7.6-0.7l0,0l4.6-0.4l0.5-1.9l4.1-0.4l0.8,1.8
		l4.7-0.4L54,18L49.4,18.4z M51.2,25.9l0.8-3.3l1.3,3.1L51.2,25.9z"/>
	<polygon fill="#FF2932" points="67.9,16.8 57.4,17.7 57.7,21.3 60.8,21 61.6,30.2 65.9,29.8 65.1,20.7 68.3,20.4 	"/>
	<path fill="#FF2932" d="M77.8,21.7c-0.5-0.3-0.9-0.5-1.5-0.6c-0.5-0.1-1-0.3-1.5-0.4c-0.5-0.1-0.8-0.2-1-0.3
		c-0.2-0.1-0.3-0.2-0.3-0.4c0-0.2,0.1-0.4,0.3-0.5c0.2-0.1,0.4-0.2,0.7-0.2c0.3,0,0.7,0,1.2,0.2c0.4,0.2,0.8,0.4,1.1,0.7l2.4-3
		c-0.7-0.6-1.5-1-2.4-1.2c-0.9-0.2-1.8-0.3-2.6-0.3c-0.6,0.1-1.3,0.2-1.9,0.4c-0.6,0.2-1.2,0.5-1.7,0.9c-0.5,0.4-0.9,0.9-1.1,1.5
		c-0.3,0.6-0.4,1.3-0.3,2.1c0.1,0.6,0.2,1,0.4,1.4c0.2,0.4,0.5,0.7,0.8,1c0.3,0.3,0.7,0.5,1.1,0.6c0.4,0.2,0.8,0.3,1.3,0.4
		c0.5,0.1,0.8,0.2,1.1,0.3c0.3,0.1,0.5,0.2,0.7,0.2c0.2,0.1,0.3,0.2,0.4,0.2c0.1,0.1,0.1,0.2,0.1,0.3c0,0.2-0.1,0.4-0.3,0.5
		c-0.2,0.1-0.4,0.2-0.6,0.2c-0.5,0-1.1,0-1.6-0.2c-0.5-0.2-0.9-0.5-1.3-0.8L69.1,28c0.4,0.3,0.7,0.5,1.2,0.7
		c0.4,0.2,0.9,0.4,1.4,0.5c0.5,0.1,1,0.2,1.5,0.3c0.5,0,1,0,1.5,0c0.7-0.1,1.3-0.2,1.9-0.4c0.6-0.2,1.1-0.6,1.6-1
		c0.5-0.4,0.8-0.9,1.1-1.5c0.3-0.6,0.4-1.3,0.3-2.1c-0.1-0.7-0.2-1.2-0.6-1.6C78.6,22.3,78.3,22,77.8,21.7z"/>
	<polygon fill="#FF2932" points="86.1,24.4 90.7,17.9 90.4,14.8 80.2,15.7 80.5,19.2 85.1,18.8 80.8,24.9 81.1,28.5 91.7,27.6 
		91.4,23.9 	"/>
	<path fill="#FF2932" d="M104,15.1c-0.7-0.5-1.5-0.9-2.4-1.1c-0.9-0.2-1.8-0.3-2.9-0.2c-1,0.1-1.9,0.3-2.8,0.7
		c-0.8,0.4-1.5,0.9-2.1,1.5c-0.6,0.6-1,1.4-1.3,2.2C92.2,19,92.1,20,92.2,21c0.1,1,0.4,1.9,0.8,2.8c0.4,0.8,1,1.5,1.7,2
		c0.7,0.5,1.5,0.9,2.4,1.2c0.9,0.3,1.9,0.3,2.9,0.2c1-0.1,1.9-0.3,2.8-0.7c0.8-0.4,1.5-0.9,2.1-1.6c0.6-0.7,1-1.4,1.3-2.3
		c0.3-0.9,0.4-1.8,0.3-2.8c-0.1-1-0.4-1.9-0.8-2.7C105.2,16.2,104.7,15.6,104,15.1z M101.8,21.3c-0.1,0.4-0.2,0.7-0.5,1
		c-0.2,0.3-0.5,0.5-0.8,0.7c-0.3,0.2-0.6,0.3-1,0.3c-0.4,0-0.7,0-1-0.1c-0.3-0.1-0.6-0.3-0.9-0.5c-0.2-0.2-0.4-0.5-0.6-0.9
		c-0.2-0.3-0.3-0.7-0.3-1.1c0-0.4,0-0.8,0.1-1.1c0.1-0.4,0.2-0.7,0.4-0.9c0.2-0.3,0.5-0.5,0.8-0.6c0.3-0.2,0.6-0.3,1-0.3
		c0.4,0,0.7,0,1,0.1c0.3,0.1,0.6,0.3,0.9,0.5c0.2,0.2,0.5,0.5,0.6,0.8c0.2,0.3,0.3,0.7,0.3,1.1C101.9,20.6,101.8,21,101.8,21.3z"/>
</g>
</svg>
