<?xml version="1.0" encoding="utf-8"?>
<!-- Generator: Adobe Illustrator 23.0.1, SVG Export Plug-In . SVG Version: 6.00 Build 0)  -->
<svg version="1.0" id="Layer_1" xmlns="http://www.w3.org/2000/svg" xmlns:xlink="http://www.w3.org/1999/xlink" x="0px" y="0px"
	 viewBox="0 0 140 38" enable-background="new 0 0 140 38" xml:space="preserve">
<g>
	<g>
		<path fill="#164193" d="M32,4.3h-2.8l0-1.6h7.5l0,1.6h-2.8l-0.1,8.5h-1.9L32,4.3z"/>
		<path fill="#164193" d="M38.5,2.7h3.2c0.6,0,1.1,0.1,1.5,0.2C43.7,3,44,3.2,44.3,3.5c0.3,0.3,0.5,0.6,0.6,0.9
			c0.1,0.3,0.2,0.7,0.2,1.1c0,0.6-0.2,1.2-0.5,1.6c-0.3,0.5-0.8,0.8-1.4,1l2.9,3.8l-1.7,1L41.6,9c-0.2-0.2-0.4-0.3-0.7-0.3h-0.6l0,4
			h-1.9L38.5,2.7z M41.5,7.2c0.2,0,0.3,0,0.5-0.1c0.2,0,0.4-0.1,0.5-0.2c0.2-0.1,0.3-0.3,0.4-0.5c0.1-0.2,0.2-0.5,0.2-0.8
			c0-0.5-0.2-0.8-0.5-1.1c-0.3-0.3-0.7-0.4-1.2-0.4h-1.1l0,3H41.5z"/>
		<path fill="#164193" d="M48.6,12.9l-1.7-0.5l3.9-9.8h1.7l3.6,9.8l-1.8,0.5l-1-2.9h-3.5L48.6,12.9z M51.5,4.6L51.5,4.6l-1.3,3.9
			h2.5L51.5,4.6z"/>
		<path fill="#164193" d="M57.9,3l1.7-0.5l4.7,7.7h0l-0.1-7.5h1.9L66,12.4l-1.9,0.5l-4.6-7.7l0,0l0.1,7.4h-1.9L57.9,3z"/>
		<path fill="#164193" d="M68.8,10.7c0.3,0.2,0.6,0.3,0.9,0.5c0.3,0.1,0.6,0.2,0.9,0.2c0.5,0,0.9-0.1,1.2-0.4c0.3-0.3,0.4-0.6,0.4-1
			c0-0.4-0.1-0.7-0.4-0.9c-0.3-0.2-0.7-0.4-1.3-0.7c-0.4-0.2-0.7-0.3-1-0.5c-0.3-0.1-0.5-0.3-0.7-0.5c-0.2-0.2-0.4-0.5-0.6-0.8
			c-0.1-0.3-0.2-0.7-0.2-1.2c0-0.4,0.1-0.8,0.2-1.1c0.2-0.4,0.4-0.7,0.7-0.9c0.3-0.3,0.7-0.5,1.1-0.6c0.4-0.1,0.9-0.2,1.4-0.2
			c0.5,0,1,0.1,1.4,0.2c0.5,0.2,0.9,0.4,1.4,0.6l-0.8,1.3l-0.1-0.1c-0.4-0.2-0.7-0.4-0.9-0.5C72.2,4,71.9,4,71.6,4
			c-0.5,0-0.8,0.1-1.2,0.4c-0.3,0.2-0.5,0.6-0.5,1c0,0.4,0.1,0.7,0.4,0.9c0.3,0.2,0.7,0.5,1.3,0.7c0.4,0.2,0.7,0.3,1,0.5
			c0.3,0.1,0.5,0.3,0.7,0.5c0.2,0.2,0.4,0.5,0.6,0.8c0.1,0.3,0.2,0.7,0.2,1.1c0,0.4-0.1,0.8-0.2,1.2c-0.2,0.4-0.4,0.7-0.7,1
			c-0.3,0.3-0.7,0.5-1.1,0.6c-0.4,0.2-0.9,0.2-1.3,0.2c-1,0-1.9-0.3-2.7-0.8L68.8,10.7z"/>
		<path fill="#164193" d="M76.4,2.7h2.8c1.3,0,2.2,0.3,2.8,0.8c0.6,0.5,0.9,1.3,0.9,2.3c0,0.5-0.1,0.9-0.3,1.3
			c-0.2,0.4-0.5,0.7-0.8,1c-0.3,0.3-0.7,0.4-1.2,0.6c-0.4,0.1-0.9,0.2-1.4,0.2h-1l0,3.9h-1.9L76.4,2.7z M79.2,7.3
			c0.5,0,0.9-0.1,1.3-0.4C80.8,6.6,81,6.2,81,5.7c0-0.2,0-0.3-0.1-0.5c-0.1-0.2-0.1-0.3-0.3-0.5c-0.1-0.2-0.3-0.3-0.5-0.4
			c-0.2-0.1-0.5-0.1-0.8-0.1h-1l0,3.1H79.2z"/>
		<path fill="#164193" d="M84.9,12.9l-1.7-0.5L87,2.7h1.7l3.6,9.8l-1.8,0.5l-1-2.9H86L84.9,12.9z M87.8,4.6L87.8,4.6l-1.3,3.9H89
			L87.8,4.6z"/>
		<path fill="#164193" d="M94.2,2.7h3.2c0.6,0,1.1,0.1,1.5,0.2c0.4,0.2,0.8,0.4,1.1,0.6c0.3,0.3,0.5,0.6,0.6,0.9
			c0.1,0.3,0.2,0.7,0.2,1.1c0,0.6-0.2,1.2-0.5,1.6c-0.3,0.5-0.8,0.8-1.4,1l2.9,3.8l-1.7,1L97.2,9c-0.2-0.2-0.4-0.3-0.7-0.3H96l0,4
			h-1.9L94.2,2.7z M97.2,7.2c0.2,0,0.3,0,0.5-0.1c0.2,0,0.4-0.1,0.5-0.2c0.2-0.1,0.3-0.3,0.4-0.5c0.1-0.2,0.2-0.5,0.2-0.8
			c0-0.5-0.2-0.8-0.5-1.1c-0.3-0.3-0.7-0.4-1.2-0.4H96l0,3H97.2z"/>
		<path fill="#164193" d="M103.4,2.7h5.4v1.6h-3.5l0,2.6h3.5v1.5h-3.5l0,2.8h3.6v1.6h-5.5L103.4,2.7z"/>
		<path fill="#164193" d="M111.1,3l1.7-0.5l4.7,7.7h0l-0.1-7.5h1.9l-0.1,9.8l-1.9,0.5l-4.6-7.7l0,0l0.1,7.4H111L111.1,3z"/>
		<path fill="#164193" d="M130.3,12c-0.5,0.3-1,0.6-1.5,0.7c-0.5,0.2-1.1,0.2-1.7,0.2c-0.7,0-1.4-0.1-2.1-0.4
			c-0.6-0.3-1.2-0.6-1.7-1.1c-0.5-0.5-0.8-1-1.1-1.7c-0.3-0.6-0.4-1.3-0.4-2.1c0-0.8,0.1-1.5,0.4-2.1c0.3-0.7,0.6-1.2,1.1-1.7
			c0.5-0.5,1-0.8,1.6-1.1c0.6-0.3,1.3-0.4,2.1-0.4c0.6,0,1.2,0.1,1.8,0.3c0.6,0.2,1.1,0.5,1.5,0.9l-0.8,1.3
			c-0.3-0.3-0.7-0.5-1.1-0.6c-0.5-0.2-0.9-0.2-1.3-0.2c-0.5,0-0.9,0.1-1.3,0.3c-0.4,0.2-0.7,0.4-1,0.8c-0.3,0.3-0.5,0.7-0.7,1.1
			c-0.2,0.4-0.2,0.9-0.2,1.4c0,0.5,0.1,0.9,0.2,1.4c0.2,0.4,0.4,0.8,0.7,1.2c0.3,0.3,0.6,0.6,1,0.8c0.4,0.2,0.8,0.3,1.3,0.3
			c0.6,0,1.1-0.1,1.4-0.2c0.4-0.1,0.7-0.3,1.1-0.5L130.3,12z"/>
		<path fill="#164193" d="M134.3,8.5L131,3.4l1.7-1l2.6,4.3l2.7-4.3l1.6,0.9l-3.4,5.1l-0.1,4.2h-2L134.3,8.5z"/>
	</g>
	<g>
		<path fill="#164193" d="M31.7,15.3h1.9l-0.1,10.1h-1.9L31.7,15.3z"/>
		<path fill="#164193" d="M35.8,15.6l1.7-0.5l4.7,7.7h0l-0.1-7.5H44l-0.1,9.8L42,25.6l-4.6-7.7l0,0l0.1,7.4h-1.9L35.8,15.6z"/>
		<path fill="#164193" d="M48.2,16.9h-2.8l0-1.6h7.5l0,1.6h-2.8L50,25.4h-1.9L48.2,16.9z"/>
		<path fill="#164193" d="M54.4,15.3h5.4v1.6h-3.5l0,2.6h3.5V21h-3.5l0,2.8h3.6v1.6h-5.5L54.4,15.3z"/>
		<path fill="#164193" d="M61.7,15.3h3.2c0.6,0,1.1,0.1,1.5,0.2c0.4,0.2,0.8,0.4,1.1,0.6c0.3,0.3,0.5,0.6,0.6,0.9
			c0.1,0.3,0.2,0.7,0.2,1.1c0,0.6-0.2,1.2-0.5,1.6c-0.3,0.5-0.8,0.8-1.4,1l2.9,3.8l-1.7,1l-2.8-3.9c-0.2-0.2-0.4-0.3-0.7-0.3h-0.6
			l0,4h-1.9L61.7,15.3z M64.7,19.8c0.2,0,0.3,0,0.5-0.1c0.2,0,0.4-0.1,0.5-0.2c0.2-0.1,0.3-0.3,0.4-0.5c0.1-0.2,0.2-0.5,0.2-0.8
			c0-0.5-0.2-0.8-0.5-1.1c-0.3-0.3-0.7-0.4-1.2-0.4h-1.1l0,3H64.7z"/>
		<path fill="#164193" d="M70.5,15.6l1.7-0.5l4.7,7.7h0l-0.1-7.5h1.9l-0.1,9.8l-1.9,0.5l-4.6-7.7l0,0l0.1,7.4h-1.9L70.5,15.6z"/>
		<path fill="#164193" d="M81.9,25.6l-1.7-0.5l3.9-9.8h1.7l3.6,9.8l-1.8,0.5l-1-2.9H83L81.9,25.6z M84.8,17.3L84.8,17.3l-1.3,3.9H86
			L84.8,17.3z"/>
		<path fill="#164193" d="M91.6,16.9h-2.8l0-1.6h7.5l0,1.6h-2.8l-0.1,8.5h-1.9L91.6,16.9z"/>
		<path fill="#164193" d="M97.7,15.3h1.9l-0.1,10.1h-1.9L97.7,15.3z"/>
		<path fill="#164193" d="M101.7,18.3c0.3-0.6,0.7-1.2,1.2-1.7c0.5-0.5,1.1-0.9,1.7-1.1c0.7-0.3,1.4-0.4,2.1-0.4
			c0.8,0,1.5,0.1,2.2,0.4c0.7,0.3,1.2,0.6,1.7,1.1c0.5,0.5,0.8,1,1.1,1.7c0.3,0.6,0.4,1.3,0.4,2.1c0,0.7-0.1,1.4-0.4,2
			c-0.3,0.6-0.7,1.2-1.1,1.7c-0.5,0.5-1.1,0.9-1.7,1.1c-0.7,0.3-1.4,0.4-2.1,0.4c-0.8,0-1.5-0.1-2.1-0.4c-0.7-0.3-1.2-0.6-1.7-1.1
			c-0.5-0.5-0.9-1-1.1-1.7c-0.3-0.6-0.4-1.3-0.4-2.1C101.3,19.6,101.4,18.9,101.7,18.3z M103.5,21.9c0.2,0.5,0.4,0.9,0.7,1.2
			c0.3,0.3,0.7,0.6,1.1,0.8c0.4,0.2,0.9,0.3,1.4,0.3c0.5,0,1-0.1,1.4-0.3c0.4-0.2,0.8-0.5,1.1-0.8c0.3-0.3,0.5-0.7,0.7-1.2
			c0.2-0.5,0.2-0.9,0.2-1.4c0-0.5-0.1-1-0.2-1.5c-0.2-0.5-0.4-0.9-0.7-1.2c-0.3-0.3-0.7-0.6-1.1-0.8c-0.4-0.2-0.9-0.3-1.4-0.3
			c-0.4,0-0.8,0.1-1.3,0.3c-0.4,0.2-0.8,0.4-1.1,0.7c-0.3,0.3-0.6,0.7-0.8,1.2c-0.2,0.5-0.3,1-0.3,1.5
			C103.2,20.9,103.3,21.4,103.5,21.9z"/>
		<path fill="#164193" d="M113.9,15.6l1.7-0.5l4.7,7.7h0l-0.1-7.5h1.9l-0.1,9.8l-1.9,0.5l-4.6-7.7l0,0l0.1,7.4h-1.9L113.9,15.6z"/>
		<path fill="#164193" d="M125.2,25.6l-1.7-0.5l3.9-9.8h1.7l3.6,9.8l-1.8,0.5l-1-2.9h-3.5L125.2,25.6z M128.2,17.3L128.2,17.3
			l-1.3,3.9h2.5L128.2,17.3z"/>
		<path fill="#164193" d="M134.3,15.3h1.9l-0.1,8.5h3.9v1.6h-5.8L134.3,15.3z"/>
	</g>
	<g>
		<path fill="#164193" d="M14.7,8.1c0-1.2-1-2.2-2.2-2.2c-1.2,0-2.2,1-2.2,2.2c0,1.2,1,2.2,2.2,2.2C13.7,10.3,14.7,9.3,14.7,8.1z"/>
		<g>
			<path fill="#164193" d="M20.4,2.5C20.4,2.5,20.4,2.5,20.4,2.5L20.1,3c0,0,0,0,0,0c0.9,0.5,1.6,1.2,2.3,1.9c0.4,0.4,0.7,0.8,1,1.3
				c0,0,0,0,0,0c0,3-4.6,5.5-10.3,5.5c-1.6,0-3.2-0.2-4.5-0.6c0.9-5.1,3.4-8.9,6.5-9.9c1,0.1,2,0.4,3,0.8c0,0,0.3-0.5,0.3-0.6
				c0,0-0.8-0.3-1.2-0.4c-1.2-0.4-2.5-0.5-3.8-0.5c-0.8,0-1.6,0.1-2.3,0.2C4.8,1.8,0,7.3,0,13.9c0,5,2.7,9.3,6.8,11.6
				c1.4,0.8,3,1.4,4.6,1.6c0.7,0.1,1.3,0.1,2,0.1c4.6,0,8.6-2.3,11-5.8c1.5-2.2,2.4-4.8,2.4-7.6C26.8,9.1,24.2,4.8,20.4,2.5z
				 M1.5,13.3c0-0.7,0.1-1.4,0.2-2.1c0.2,1,0.8,1.9,1.6,2.7c0,0.4,0,0.8,0,1.1c0,2.1,0.4,4.2,1.1,6C2.5,18.9,1.5,16.2,1.5,13.3z
				 M4.2,8.9C3.7,8.4,3.3,7.8,3.1,7.2C4.4,4.9,6.6,3,9.1,2C7,3.7,5.2,6.1,4.2,8.9z M15.6,25.2c-1.2-0.9-1.7-4.2-1.7-6.6
				c0-0.4,0-0.7,0.1-1.1c0,0,0,0,0,0c-1.7,0-3.3-0.2-4.9-0.5C8.9,19.6,9.8,23,10.6,25c-0.2,0-0.3-0.1-0.5-0.1
				c-1.1-2.3-1.8-5.3-1.9-8.5c1.6,0.4,3.5,0.7,5.4,0.6c6.3-0.2,11.4-3.3,11.6-7c0.3,1,0.5,2.1,0.5,3.3c0,1.4-0.2,2.7-0.7,4
				C23.6,21.4,20,24.5,15.6,25.2z"/>
		</g>
	</g>
	<g>
		<path fill="#164193" d="M32.4,32.3H33l1.5,4.3l1.6-4.3h0.7l0.8,5l-0.6,0.1l-0.6-4.3h0l-1.6,4.2h-0.6l-1.5-4.2h0l-0.7,4.3l-0.6-0.1
			L32.4,32.3z"/>
		<path fill="#164193" d="M40.2,32.3h0.6l2,4.9l-0.6,0.2l-0.7-1.8h-2.1l-0.7,1.8l-0.6-0.2L40.2,32.3z M40.5,32.9L40.5,32.9l-0.9,2.3
			h1.7L40.5,32.9z"/>
		<path fill="#164193" d="M47.6,34.8l0,2.3c-0.6,0.3-1.2,0.4-1.6,0.4c-1.5,0-2.7-1-2.7-2.6c0-1.5,1.2-2.6,2.7-2.6
			c0.5,0,1.1,0.1,1.6,0.4l-0.2,0.5c-0.3-0.2-0.8-0.3-1.3-0.3c-1.2,0-2,0.9-2,2.1c0,1.2,0.8,2.1,2,2.1c0.3,0,0.7-0.1,1-0.2l0-2H47.6z
			"/>
		<path fill="#164193" d="M50,35.2l-1.8-2.7l0.6-0.3l1.6,2.5l1.6-2.5l0.5,0.3l-1.9,2.7l0,2.2h-0.6L50,35.2z"/>
		<path fill="#164193" d="M54.2,32.3h0.6l2,4.9l-0.6,0.2l-0.7-1.8h-2.1l-0.7,1.8l-0.6-0.2L54.2,32.3z M54.5,32.9L54.5,32.9l-0.9,2.3
			h1.7L54.5,32.9z"/>
		<path fill="#164193" d="M57.6,32.3h1.5c1,0,1.6,0.5,1.6,1.3c0,0.8-0.6,1.3-1.3,1.4v0c0.3,0.1,0.6,0.5,0.8,0.8l1,1.3l-0.6,0.3
			l-1.2-1.6c-0.3-0.4-0.5-0.7-0.9-0.7h-0.4l0,2.2h-0.6L57.6,32.3z M58.2,34.7h0.6c0.6,0,1.3-0.2,1.3-1c0-0.5-0.3-1-1.1-1h-0.7
			L58.2,34.7z"/>
		<path fill="#164193" d="M64.4,32.2c1.5,0,2.7,1,2.7,2.6c0,1.5-1.2,2.6-2.7,2.6c-1.5,0-2.7-1-2.7-2.6
			C61.7,33.3,62.9,32.2,64.4,32.2z M64.4,37c1.2,0,2-0.9,2-2.1c0-1.2-0.8-2.1-2-2.1c-1.2,0-2,0.9-2,2.1C62.4,36,63.2,37,64.4,37z"/>
		<path fill="#164193" d="M68.1,32.3h1.5c1,0,1.6,0.5,1.6,1.3c0,0.8-0.6,1.3-1.3,1.4v0c0.3,0.1,0.6,0.5,0.8,0.8l1,1.3l-0.6,0.3
			L70,35.9c-0.3-0.4-0.5-0.7-0.9-0.7h-0.4l0,2.2H68L68.1,32.3z M68.7,34.7h0.6c0.6,0,1.3-0.2,1.3-1c0-0.5-0.3-1-1.1-1h-0.7
			L68.7,34.7z"/>
		<path fill="#164193" d="M72.5,36.6c0.3,0.2,0.7,0.4,1.1,0.4c0.6,0,1-0.4,1-0.9c0-1.3-2.2-0.8-2.2-2.5c0-0.8,0.6-1.3,1.5-1.3
			c0.5,0,0.9,0.2,1.3,0.4l-0.2,0.5c-0.3-0.2-0.6-0.4-1.1-0.4c-0.4,0-0.9,0.3-0.9,0.9c0,1.1,2.3,0.9,2.3,2.4c0,0.7-0.5,1.4-1.6,1.4
			c-0.5,0-1-0.1-1.4-0.4L72.5,36.6z"/>
		<path fill="#164193" d="M75.7,37l2.8-4.2h-2.6v-0.5h3.3l0.2,0.3l-2.8,4.2h2.7v0.5h-3.4L75.7,37z"/>
		<path fill="#164193" d="M81.7,32.3h0.6l2,4.9l-0.6,0.2L83,35.7h-2.1l-0.7,1.8l-0.6-0.2L81.7,32.3z M82,32.9L82,32.9l-0.9,2.3h1.7
			L82,32.9z M82.2,31H83l-1,1h-0.5L82.2,31z"/>
		<path fill="#164193" d="M89.1,34.8l0,2.3c-0.6,0.3-1.2,0.4-1.6,0.4c-1.5,0-2.7-1-2.7-2.6c0-1.5,1.2-2.6,2.7-2.6
			c0.5,0,1.1,0.1,1.6,0.4l-0.2,0.5c-0.3-0.2-0.8-0.3-1.3-0.3c-1.2,0-2,0.9-2,2.1c0,1.2,0.8,2.1,2,2.1c0.3,0,0.7-0.1,1-0.2l0-2H89.1z
			"/>
	</g>
	<line fill="none" stroke="#164193" stroke-width="2" x1="31.5" y1="29" x2="140" y2="29"/>
</g>
</svg>
